<svg xmlns="http://www.w3.org/2000/svg" width="113.386" height="113.386">
  <radialGradient id="a" cx="56.693" cy="56.693" r="51.216" gradientUnits="userSpaceOnUse">
    <stop offset="0" stop-color="#cd5849"/>
    <stop offset=".231" stop-color="#dc8a7f"/>
    <stop offset=".49" stop-color="#ebbcb6"/>
    <stop offset=".714" stop-color="#f6e0de"/>
    <stop offset=".891" stop-color="#fdf7f6"/>
    <stop offset="1" stop-color="#fff"/>
  </radialGradient>
  <circle fill="url(#a)" cx="56.693" cy="56.693" r="51.216"/>
  <radialGradient id="b" cx="56.693" cy="56.693" r="51.216" gradientUnits="userSpaceOnUse">
    <stop offset="0" stop-color="#53c44b"/>
    <stop offset=".224" stop-color="#85d57f"/>
    <stop offset=".486" stop-color="#b9e7b6"/>
    <stop offset=".712" stop-color="#dff4de"/>
    <stop offset=".89" stop-color="#f6fcf6"/>
    <stop offset="1" stop-color="#fff"/>
  </radialGradient>
  <circle fill="url(#b)" cx="56.693" cy="56.693" r="51.216"/>
  <g fill="#231F20">
    <path d="M49.693 89.133c-2.475 0-4.5-2.551-4.5-5.669V68.938c0-3.118 2.025-5.669 4.5-5.669s4.5 2.551 4.5 5.669v14.525c0 3.119-2.025 5.67-4.5 5.67zM63.693 89.133c-2.475 0-4.5-2.551-4.5-5.669V68.938c0-3.118 2.025-5.669 4.5-5.669s4.5 2.551 4.5 5.669v14.525c0 3.119-2.025 5.67-4.5 5.67zM45.193 50.443V39.669c0-3.118 2.551-5.669 5.669-5.669h11.661c3.118 0 5.669 2.551 5.669 5.669v10.774H45.193z"/>
    <circle cx="56.693" cy="25.247" r="7"/>
  </g>
  <path fill="#B7B7B8" d="M95.693 52.409h-78v9h10v34.5h9v-34.5h40v34.5h9v-34.5h10z"/>
</svg>
