<?xml version="1.0" encoding="utf-8"?>
<!-- Generator: Adobe Illustrator 16.0.4, SVG Export Plug-In . SVG Version: 6.00 Build 0)  -->
<!DOCTYPE svg PUBLIC "-//W3C//DTD SVG 1.1//EN" "http://www.w3.org/Graphics/SVG/1.1/DTD/svg11.dtd">
<svg version="1.1" xmlns="http://www.w3.org/2000/svg" xmlns:xlink="http://www.w3.org/1999/xlink" x="0px" y="0px" width="1286px"
	 height="914px" viewBox="0 0 1286 914" enable-background="new 0 0 1286 914" xml:space="preserve">
<g id="background">
	<g>
		<linearGradient id="SVGID_1_" gradientUnits="userSpaceOnUse" x1="140.9062" y1="235.501" x2="876.5229" y2="235.501">
			<stop  offset="0" style="stop-color:#F5F5F5;stop-opacity:0"/>
			<stop  offset="0.1402" style="stop-color:#F5F5F5"/>
		</linearGradient>
		<path fill="url(#SVGID_1_)" d="M343.878,16.581c-15.59,0-33.284,11.762-39.318,26.137L152.047,406.012
			c-6.035,14.375-11.047,33.592-11.14,42.703c-0.092,9.112,8.373,7.092,18.812-4.488l136.833-151.795
			c10.439-11.58,31.735-21.055,47.326-21.055h504.298c15.591,0,28.347-12.756,28.347-28.347V44.927
			c0-15.591-12.756-28.347-28.347-28.347H343.878z"/>
	</g>
	<g>
		<linearGradient id="SVGID_2_" gradientUnits="userSpaceOnUse" x1="129.896" y1="459.8008" x2="1268.4985" y2="459.8008">
			<stop  offset="0" style="stop-color:#F5F5F5;stop-opacity:0"/>
			<stop  offset="0.1402" style="stop-color:#F5F5F5"/>
		</linearGradient>
		<path fill="url(#SVGID_2_)" d="M291.106,572.814c13.434,7.912,37.181,14.385,52.771,14.385h896.274
			c15.59,0,28.346-12.756,28.346-28.347V360.749c0-15.59-12.756-28.346-28.346-28.346H343.878c-15.59,0-38.556,7.647-51.035,16.993
			L155.045,452.601c-12.479,9.346-23.745,18.558-25.036,20.472s8.644,9.953,22.078,17.864L291.106,572.814z"/>
	</g>
	<g>
		<linearGradient id="SVGID_3_" gradientUnits="userSpaceOnUse" x1="137.4189" y1="694.8965" x2="1268.4985" y2="694.8965">
			<stop  offset="0" style="stop-color:#F5F5F5;stop-opacity:0"/>
			<stop  offset="0.1402" style="stop-color:#F5F5F5"/>
		</linearGradient>
		<path fill="url(#SVGID_3_)" d="M343.878,645.61c-15.59,0-37.752-8.616-49.249-19.146L156.443,499.89
			c-11.497-10.531-20.016-13.676-18.932-6.991c1.084,6.686,7.16,23.809,13.502,38.051l152.987,343.562
			c6.342,14.242,24.287,25.895,39.877,25.895h896.274c15.59,0,28.346-12.756,28.346-28.347V673.957
			c0-15.591-12.756-28.347-28.346-28.347H343.878z"/>
	</g>
	<g>
		<rect x="15.473" y="460.521" fill="#B7B7B8" width="128.409" height="22.375"/>
		<rect x="15.473" y="432.148" fill="#B7B7B8" width="128.409" height="22.373"/>
		<polygon fill="#B7B7B8" points="79.678,384.307 143.881,426.147 15.473,426.147 		"/>
		<rect x="89.171" y="488.897" fill="#B7B7B8" width="54.71" height="22.374"/>
		<rect x="15.473" y="488.897" fill="#B7B7B8" width="54.71" height="22.374"/>
	</g>
</g>
<g id="walkingPeople">
	<g>
		<path fill="#231F20" d="M82.951,647.324h-6.546c-2.261,0-4.11,1.944-4.11,4.323v8.214v6.909v3.272v10.459v0.338v7.938
			c0,1.776,1.405,3.23,3.12,3.23c1.715,0,3.12-1.454,3.12-3.23v-7.938v-0.338v-10.459h2.288v10.459v0.338v7.938
			c0,1.776,1.404,3.23,3.12,3.23c1.715,0,3.12-1.454,3.12-3.23v-7.938v-0.338v-10.459v-3.272v-6.909v-8.214
			C87.061,649.269,85.211,647.324,82.951,647.324z"/>
		<circle fill="#231F20" cx="79.677" cy="639.922" r="5.598"/>
	</g>
	<g>
		<path fill="#231F20" d="M82.951,481.416h-6.546c-2.261,0-4.11,1.944-4.11,4.323v8.214v6.909v3.272v10.459v0.338v7.938
			c0,1.776,1.405,3.23,3.12,3.23c1.715,0,3.12-1.454,3.12-3.23v-7.938v-0.338v-10.459h2.288v10.459v0.338v7.938
			c0,1.776,1.404,3.23,3.12,3.23c1.715,0,3.12-1.454,3.12-3.23v-7.938v-0.338v-10.459v-3.272v-6.909v-8.214
			C87.061,483.36,85.211,481.416,82.951,481.416z"/>
		<circle fill="#231F20" cx="79.677" cy="474.014" r="5.598"/>
	</g>
</g>
<g id="sittingPeopleG">
	<g>
		<g>
			<path fill="#231F20" d="M380.694,854.837c-2.475,0-4.5-2.551-4.5-5.669v-14.526c0-3.118,2.025-5.669,4.5-5.669
				s4.5,2.551,4.5,5.669v14.526C385.194,852.286,383.169,854.837,380.694,854.837z"/>
		</g>
		<g>
			<path fill="#231F20" d="M394.694,854.837c-2.475,0-4.5-2.551-4.5-5.669v-14.526c0-3.118,2.025-5.669,4.5-5.669
				s4.5,2.551,4.5,5.669v14.526C399.194,852.286,397.169,854.837,394.694,854.837z"/>
		</g>
		<g>
			<path fill="#231F20" d="M381.864,825.567c-3.118,0-5.669-2.551-5.669-5.669v-14.526c0-3.118,2.551-5.669,5.669-5.669h11.661
				c3.118,0,5.669,2.551,5.669,5.669v14.526c0,3.118-2.551,5.669-5.669,5.669H381.864z"/>
		</g>
		<circle fill="#231F20" cx="387.694" cy="790.949" r="7"/>
	</g>
	<g>
		<g>
			<path fill="#231F20" d="M513.206,854.837c-2.475,0-4.5-2.551-4.5-5.669v-14.526c0-3.118,2.025-5.669,4.5-5.669
				s4.5,2.551,4.5,5.669v14.526C517.706,852.286,515.681,854.837,513.206,854.837z"/>
		</g>
		<g>
			<path fill="#231F20" d="M527.206,854.837c-2.475,0-4.5-2.551-4.5-5.669v-14.526c0-3.118,2.025-5.669,4.5-5.669
				s4.5,2.551,4.5,5.669v14.526C531.706,852.286,529.681,854.837,527.206,854.837z"/>
		</g>
		<g>
			<path fill="#231F20" d="M514.375,825.567c-3.118,0-5.669-2.551-5.669-5.669v-14.526c0-3.118,2.551-5.669,5.669-5.669h11.661
				c3.118,0,5.669,2.551,5.669,5.669v14.526c0,3.118-2.551,5.669-5.669,5.669H514.375z"/>
		</g>
		<circle fill="#231F20" cx="520.206" cy="790.949" r="7"/>
	</g>
	<g>
		<g>
			<path fill="#231F20" d="M380.694,747.142c-2.475,0-4.5-2.551-4.5-5.669v-14.526c0-3.118,2.025-5.669,4.5-5.669
				s4.5,2.551,4.5,5.669v14.526C385.194,744.59,383.169,747.142,380.694,747.142z"/>
		</g>
		<g>
			<path fill="#231F20" d="M394.694,747.142c-2.475,0-4.5-2.551-4.5-5.669v-14.526c0-3.118,2.025-5.669,4.5-5.669
				s4.5,2.551,4.5,5.669v14.526C399.194,744.59,397.169,747.142,394.694,747.142z"/>
		</g>
		<g>
			<path fill="#231F20" d="M381.864,717.873c-3.118,0-5.669-2.551-5.669-5.669v-14.526c0-3.118,2.551-5.669,5.669-5.669h11.661
				c3.118,0,5.669,2.551,5.669,5.669v14.526c0,3.118-2.551,5.669-5.669,5.669H381.864z"/>
		</g>
		<circle fill="#231F20" cx="387.694" cy="683.254" r="7"/>
	</g>
	<g>
		<g>
			<path fill="#231F20" d="M513.206,747.142c-2.475,0-4.5-2.551-4.5-5.669v-14.526c0-3.118,2.025-5.669,4.5-5.669
				s4.5,2.551,4.5,5.669v14.526C517.706,744.59,515.681,747.142,513.206,747.142z"/>
		</g>
		<g>
			<path fill="#231F20" d="M527.206,747.142c-2.475,0-4.5-2.551-4.5-5.669v-14.526c0-3.118,2.025-5.669,4.5-5.669
				s4.5,2.551,4.5,5.669v14.526C531.706,744.59,529.681,747.142,527.206,747.142z"/>
		</g>
		<g>
			<path fill="#231F20" d="M514.375,717.873c-3.118,0-5.669-2.551-5.669-5.669v-14.526c0-3.118,2.551-5.669,5.669-5.669h11.661
				c3.118,0,5.669,2.551,5.669,5.669v14.526c0,3.118-2.551,5.669-5.669,5.669H514.375z"/>
		</g>
		<circle fill="#231F20" cx="520.206" cy="683.254" r="7"/>
	</g>
	<g>
		<g>
			<path fill="#231F20" d="M644.715,854.837c-2.475,0-4.5-2.551-4.5-5.669v-14.526c0-3.118,2.025-5.669,4.5-5.669
				s4.5,2.551,4.5,5.669v14.526C649.215,852.286,647.19,854.837,644.715,854.837z"/>
		</g>
		<g>
			<path fill="#231F20" d="M658.715,854.837c-2.475,0-4.5-2.551-4.5-5.669v-14.526c0-3.118,2.025-5.669,4.5-5.669
				s4.5,2.551,4.5,5.669v14.526C663.215,852.286,661.19,854.837,658.715,854.837z"/>
		</g>
		<g>
			<path fill="#231F20" d="M645.884,825.567c-3.118,0-5.669-2.551-5.669-5.669v-14.526c0-3.118,2.551-5.669,5.669-5.669h11.661
				c3.118,0,5.669,2.551,5.669,5.669v14.526c0,3.118-2.551,5.669-5.669,5.669H645.884z"/>
		</g>
		<circle fill="#231F20" cx="651.715" cy="790.949" r="7"/>
	</g>
	<g>
		<g>
			<path fill="#231F20" d="M777.226,854.837c-2.475,0-4.5-2.551-4.5-5.669v-14.526c0-3.118,2.025-5.669,4.5-5.669
				s4.5,2.551,4.5,5.669v14.526C781.726,852.286,779.701,854.837,777.226,854.837z"/>
		</g>
		<g>
			<path fill="#231F20" d="M791.226,854.837c-2.475,0-4.5-2.551-4.5-5.669v-14.526c0-3.118,2.025-5.669,4.5-5.669
				s4.5,2.551,4.5,5.669v14.526C795.726,852.286,793.701,854.837,791.226,854.837z"/>
		</g>
		<g>
			<path fill="#231F20" d="M778.396,825.567c-3.118,0-5.669-2.551-5.669-5.669v-14.526c0-3.118,2.551-5.669,5.669-5.669h11.661
				c3.118,0,5.669,2.551,5.669,5.669v14.526c0,3.118-2.551,5.669-5.669,5.669H778.396z"/>
		</g>
		<circle fill="#231F20" cx="784.226" cy="790.949" r="7"/>
	</g>
	<g>
		<g>
			<path fill="#231F20" d="M644.715,747.142c-2.475,0-4.5-2.551-4.5-5.669v-14.526c0-3.118,2.025-5.669,4.5-5.669
				s4.5,2.551,4.5,5.669v14.526C649.215,744.59,647.19,747.142,644.715,747.142z"/>
		</g>
		<g>
			<path fill="#231F20" d="M658.715,747.142c-2.475,0-4.5-2.551-4.5-5.669v-14.526c0-3.118,2.025-5.669,4.5-5.669
				s4.5,2.551,4.5,5.669v14.526C663.215,744.59,661.19,747.142,658.715,747.142z"/>
		</g>
		<g>
			<path fill="#231F20" d="M645.884,717.873c-3.118,0-5.669-2.551-5.669-5.669v-14.526c0-3.118,2.551-5.669,5.669-5.669h11.661
				c3.118,0,5.669,2.551,5.669,5.669v14.526c0,3.118-2.551,5.669-5.669,5.669H645.884z"/>
		</g>
		<circle fill="#231F20" cx="651.715" cy="683.254" r="7"/>
	</g>
	<g>
		<g>
			<path fill="#231F20" d="M777.226,747.142c-2.475,0-4.5-2.551-4.5-5.669v-14.526c0-3.118,2.025-5.669,4.5-5.669
				s4.5,2.551,4.5,5.669v14.526C781.726,744.59,779.701,747.142,777.226,747.142z"/>
		</g>
		<g>
			<path fill="#231F20" d="M791.226,747.142c-2.475,0-4.5-2.551-4.5-5.669v-14.526c0-3.118,2.025-5.669,4.5-5.669
				s4.5,2.551,4.5,5.669v14.526C795.726,744.59,793.701,747.142,791.226,747.142z"/>
		</g>
		<g>
			<path fill="#231F20" d="M778.396,717.873c-3.118,0-5.669-2.551-5.669-5.669v-14.526c0-3.118,2.551-5.669,5.669-5.669h11.661
				c3.118,0,5.669,2.551,5.669,5.669v14.526c0,3.118-2.551,5.669-5.669,5.669H778.396z"/>
		</g>
		<circle fill="#231F20" cx="784.226" cy="683.254" r="7"/>
	</g>
	<g>
		<g>
			<path fill="#231F20" d="M910.243,854.837c-2.475,0-4.5-2.551-4.5-5.669v-14.526c0-3.118,2.025-5.669,4.5-5.669
				s4.5,2.551,4.5,5.669v14.526C914.743,852.286,912.718,854.837,910.243,854.837z"/>
		</g>
		<g>
			<path fill="#231F20" d="M924.243,854.837c-2.475,0-4.5-2.551-4.5-5.669v-14.526c0-3.118,2.025-5.669,4.5-5.669
				s4.5,2.551,4.5,5.669v14.526C928.743,852.286,926.718,854.837,924.243,854.837z"/>
		</g>
		<g>
			<path fill="#231F20" d="M911.413,825.567c-3.118,0-5.669-2.551-5.669-5.669v-14.526c0-3.118,2.551-5.669,5.669-5.669h11.661
				c3.118,0,5.669,2.551,5.669,5.669v14.526c0,3.118-2.551,5.669-5.669,5.669H911.413z"/>
		</g>
		<circle fill="#231F20" cx="917.243" cy="790.949" r="7"/>
	</g>
	<g>
		<g>
			<path fill="#231F20" d="M910.243,747.142c-2.475,0-4.5-2.551-4.5-5.669v-14.526c0-3.118,2.025-5.669,4.5-5.669
				s4.5,2.551,4.5,5.669v14.526C914.743,744.59,912.718,747.142,910.243,747.142z"/>
		</g>
		<g>
			<path fill="#231F20" d="M924.243,747.142c-2.475,0-4.5-2.551-4.5-5.669v-14.526c0-3.118,2.025-5.669,4.5-5.669
				s4.5,2.551,4.5,5.669v14.526C928.743,744.59,926.718,747.142,924.243,747.142z"/>
		</g>
		<g>
			<path fill="#231F20" d="M911.413,717.873c-3.118,0-5.669-2.551-5.669-5.669v-14.526c0-3.118,2.551-5.669,5.669-5.669h11.661
				c3.118,0,5.669,2.551,5.669,5.669v14.526c0,3.118-2.551,5.669-5.669,5.669H911.413z"/>
		</g>
		<circle fill="#231F20" cx="917.243" cy="683.254" r="7"/>
	</g>
	<g>
		<g>
			<path fill="#231F20" d="M1041.752,854.837c-2.475,0-4.5-2.551-4.5-5.669v-14.526c0-3.118,2.025-5.669,4.5-5.669
				s4.5,2.551,4.5,5.669v14.526C1046.252,852.286,1044.228,854.837,1041.752,854.837z"/>
		</g>
		<g>
			<path fill="#231F20" d="M1055.752,854.837c-2.475,0-4.5-2.551-4.5-5.669v-14.526c0-3.118,2.025-5.669,4.5-5.669
				s4.5,2.551,4.5,5.669v14.526C1060.252,852.286,1058.228,854.837,1055.752,854.837z"/>
		</g>
		<g>
			<path fill="#231F20" d="M1042.922,825.567c-3.118,0-5.669-2.551-5.669-5.669v-14.526c0-3.118,2.551-5.669,5.669-5.669h11.661
				c3.118,0,5.669,2.551,5.669,5.669v14.526c0,3.118-2.551,5.669-5.669,5.669H1042.922z"/>
		</g>
		<circle fill="#231F20" cx="1048.752" cy="790.949" r="7"/>
	</g>
	<g>
		<g>
			<path fill="#231F20" d="M1174.264,854.837c-2.475,0-4.5-2.551-4.5-5.669v-14.526c0-3.118,2.025-5.669,4.5-5.669
				s4.5,2.551,4.5,5.669v14.526C1178.764,852.286,1176.739,854.837,1174.264,854.837z"/>
		</g>
		<g>
			<path fill="#231F20" d="M1188.264,854.837c-2.475,0-4.5-2.551-4.5-5.669v-14.526c0-3.118,2.025-5.669,4.5-5.669
				s4.5,2.551,4.5,5.669v14.526C1192.764,852.286,1190.739,854.837,1188.264,854.837z"/>
		</g>
		<g>
			<path fill="#231F20" d="M1175.433,825.567c-3.118,0-5.669-2.551-5.669-5.669v-14.526c0-3.118,2.551-5.669,5.669-5.669h11.661
				c3.118,0,5.669,2.551,5.669,5.669v14.526c0,3.118-2.551,5.669-5.669,5.669H1175.433z"/>
		</g>
		<circle fill="#231F20" cx="1181.264" cy="790.949" r="7"/>
	</g>
	<g>
		<g>
			<path fill="#231F20" d="M1041.752,747.142c-2.475,0-4.5-2.551-4.5-5.669v-14.526c0-3.118,2.025-5.669,4.5-5.669
				s4.5,2.551,4.5,5.669v14.526C1046.252,744.59,1044.228,747.142,1041.752,747.142z"/>
		</g>
		<g>
			<path fill="#231F20" d="M1055.752,747.142c-2.475,0-4.5-2.551-4.5-5.669v-14.526c0-3.118,2.025-5.669,4.5-5.669
				s4.5,2.551,4.5,5.669v14.526C1060.252,744.59,1058.228,747.142,1055.752,747.142z"/>
		</g>
		<g>
			<path fill="#231F20" d="M1042.922,717.873c-3.118,0-5.669-2.551-5.669-5.669v-14.526c0-3.118,2.551-5.669,5.669-5.669h11.661
				c3.118,0,5.669,2.551,5.669,5.669v14.526c0,3.118-2.551,5.669-5.669,5.669H1042.922z"/>
		</g>
		<circle fill="#231F20" cx="1048.752" cy="683.254" r="7"/>
	</g>
	<g>
		<g>
			<path fill="#231F20" d="M1174.264,747.142c-2.475,0-4.5-2.551-4.5-5.669v-14.526c0-3.118,2.025-5.669,4.5-5.669
				s4.5,2.551,4.5,5.669v14.526C1178.764,744.59,1176.739,747.142,1174.264,747.142z"/>
		</g>
		<g>
			<path fill="#231F20" d="M1188.264,747.142c-2.475,0-4.5-2.551-4.5-5.669v-14.526c0-3.118,2.025-5.669,4.5-5.669
				s4.5,2.551,4.5,5.669v14.526C1192.764,744.59,1190.739,747.142,1188.264,747.142z"/>
		</g>
		<g>
			<path fill="#231F20" d="M1175.433,717.873c-3.118,0-5.669-2.551-5.669-5.669v-14.526c0-3.118,2.551-5.669,5.669-5.669h11.661
				c3.118,0,5.669,2.551,5.669,5.669v14.526c0,3.118-2.551,5.669-5.669,5.669H1175.433z"/>
		</g>
		<circle fill="#231F20" cx="1181.264" cy="683.254" r="7"/>
	</g>
</g>
<g id="sittingPeopleH">
	<g>
		<g>
			<path fill="#231F20" d="M380.694,539.81c-2.475,0-4.5-2.551-4.5-5.669v-14.526c0-3.118,2.025-5.669,4.5-5.669
				s4.5,2.551,4.5,5.669v14.526C385.194,537.259,383.169,539.81,380.694,539.81z"/>
		</g>
		<g>
			<path fill="#231F20" d="M394.694,539.81c-2.475,0-4.5-2.551-4.5-5.669v-14.526c0-3.118,2.025-5.669,4.5-5.669
				s4.5,2.551,4.5,5.669v14.526C399.194,537.259,397.169,539.81,394.694,539.81z"/>
		</g>
		<g>
			<path fill="#231F20" d="M381.864,510.541c-3.118,0-5.669-2.551-5.669-5.669v-14.526c0-3.118,2.551-5.669,5.669-5.669h11.661
				c3.118,0,5.669,2.551,5.669,5.669v14.526c0,3.118-2.551,5.669-5.669,5.669H381.864z"/>
		</g>
		<circle fill="#231F20" cx="387.694" cy="475.922" r="7"/>
	</g>
	<g>
		<g>
			<path fill="#231F20" d="M513.206,539.81c-2.475,0-4.5-2.551-4.5-5.669v-14.526c0-3.118,2.025-5.669,4.5-5.669
				s4.5,2.551,4.5,5.669v14.526C517.706,537.259,515.681,539.81,513.206,539.81z"/>
		</g>
		<g>
			<path fill="#231F20" d="M527.206,539.81c-2.475,0-4.5-2.551-4.5-5.669v-14.526c0-3.118,2.025-5.669,4.5-5.669
				s4.5,2.551,4.5,5.669v14.526C531.706,537.259,529.681,539.81,527.206,539.81z"/>
		</g>
		<g>
			<path fill="#231F20" d="M514.375,510.541c-3.118,0-5.669-2.551-5.669-5.669v-14.526c0-3.118,2.551-5.669,5.669-5.669h11.661
				c3.118,0,5.669,2.551,5.669,5.669v14.526c0,3.118-2.551,5.669-5.669,5.669H514.375z"/>
		</g>
		<circle fill="#231F20" cx="520.206" cy="475.922" r="7"/>
	</g>
	<g>
		<g>
			<path fill="#231F20" d="M380.694,432.115c-2.475,0-4.5-2.551-4.5-5.669v-14.526c0-3.118,2.025-5.669,4.5-5.669
				s4.5,2.551,4.5,5.669v14.526C385.194,429.563,383.169,432.115,380.694,432.115z"/>
		</g>
		<g>
			<path fill="#231F20" d="M394.694,432.115c-2.475,0-4.5-2.551-4.5-5.669v-14.526c0-3.118,2.025-5.669,4.5-5.669
				s4.5,2.551,4.5,5.669v14.526C399.194,429.563,397.169,432.115,394.694,432.115z"/>
		</g>
		<g>
			<path fill="#231F20" d="M381.864,402.846c-3.118,0-5.669-2.551-5.669-5.669V382.65c0-3.118,2.551-5.669,5.669-5.669h11.661
				c3.118,0,5.669,2.551,5.669,5.669v14.526c0,3.118-2.551,5.669-5.669,5.669H381.864z"/>
		</g>
		<circle fill="#231F20" cx="387.694" cy="368.228" r="7"/>
	</g>
	<g>
		<g>
			<path fill="#231F20" d="M513.206,432.115c-2.475,0-4.5-2.551-4.5-5.669v-14.526c0-3.118,2.025-5.669,4.5-5.669
				s4.5,2.551,4.5,5.669v14.526C517.706,429.563,515.681,432.115,513.206,432.115z"/>
		</g>
		<g>
			<path fill="#231F20" d="M527.206,432.115c-2.475,0-4.5-2.551-4.5-5.669v-14.526c0-3.118,2.025-5.669,4.5-5.669
				s4.5,2.551,4.5,5.669v14.526C531.706,429.563,529.681,432.115,527.206,432.115z"/>
		</g>
		<g>
			<path fill="#231F20" d="M514.375,402.846c-3.118,0-5.669-2.551-5.669-5.669V382.65c0-3.118,2.551-5.669,5.669-5.669h11.661
				c3.118,0,5.669,2.551,5.669,5.669v14.526c0,3.118-2.551,5.669-5.669,5.669H514.375z"/>
		</g>
		<circle fill="#231F20" cx="520.206" cy="368.228" r="7"/>
	</g>
	<g>
		<g>
			<path fill="#231F20" d="M644.715,539.81c-2.475,0-4.5-2.551-4.5-5.669v-14.526c0-3.118,2.025-5.669,4.5-5.669
				s4.5,2.551,4.5,5.669v14.526C649.215,537.259,647.19,539.81,644.715,539.81z"/>
		</g>
		<g>
			<path fill="#231F20" d="M658.715,539.81c-2.475,0-4.5-2.551-4.5-5.669v-14.526c0-3.118,2.025-5.669,4.5-5.669
				s4.5,2.551,4.5,5.669v14.526C663.215,537.259,661.19,539.81,658.715,539.81z"/>
		</g>
		<g>
			<path fill="#231F20" d="M645.884,510.541c-3.118,0-5.669-2.551-5.669-5.669v-14.526c0-3.118,2.551-5.669,5.669-5.669h11.661
				c3.118,0,5.669,2.551,5.669,5.669v14.526c0,3.118-2.551,5.669-5.669,5.669H645.884z"/>
		</g>
		<circle fill="#231F20" cx="651.715" cy="475.922" r="7"/>
	</g>
	<g>
		<g>
			<path fill="#231F20" d="M777.226,539.81c-2.475,0-4.5-2.551-4.5-5.669v-14.526c0-3.118,2.025-5.669,4.5-5.669
				s4.5,2.551,4.5,5.669v14.526C781.726,537.259,779.701,539.81,777.226,539.81z"/>
		</g>
		<g>
			<path fill="#231F20" d="M791.226,539.81c-2.475,0-4.5-2.551-4.5-5.669v-14.526c0-3.118,2.025-5.669,4.5-5.669
				s4.5,2.551,4.5,5.669v14.526C795.726,537.259,793.701,539.81,791.226,539.81z"/>
		</g>
		<g>
			<path fill="#231F20" d="M778.396,510.541c-3.118,0-5.669-2.551-5.669-5.669v-14.526c0-3.118,2.551-5.669,5.669-5.669h11.661
				c3.118,0,5.669,2.551,5.669,5.669v14.526c0,3.118-2.551,5.669-5.669,5.669H778.396z"/>
		</g>
		<circle fill="#231F20" cx="784.226" cy="475.922" r="7"/>
	</g>
	<g>
		<g>
			<path fill="#231F20" d="M644.715,432.115c-2.475,0-4.5-2.551-4.5-5.669v-14.526c0-3.118,2.025-5.669,4.5-5.669
				s4.5,2.551,4.5,5.669v14.526C649.215,429.563,647.19,432.115,644.715,432.115z"/>
		</g>
		<g>
			<path fill="#231F20" d="M658.715,432.115c-2.475,0-4.5-2.551-4.5-5.669v-14.526c0-3.118,2.025-5.669,4.5-5.669
				s4.5,2.551,4.5,5.669v14.526C663.215,429.563,661.19,432.115,658.715,432.115z"/>
		</g>
		<g>
			<path fill="#231F20" d="M645.884,402.846c-3.118,0-5.669-2.551-5.669-5.669V382.65c0-3.118,2.551-5.669,5.669-5.669h11.661
				c3.118,0,5.669,2.551,5.669,5.669v14.526c0,3.118-2.551,5.669-5.669,5.669H645.884z"/>
		</g>
		<circle fill="#231F20" cx="651.715" cy="368.228" r="7"/>
	</g>
	<g>
		<g>
			<path fill="#231F20" d="M777.226,432.115c-2.475,0-4.5-2.551-4.5-5.669v-14.526c0-3.118,2.025-5.669,4.5-5.669
				s4.5,2.551,4.5,5.669v14.526C781.726,429.563,779.701,432.115,777.226,432.115z"/>
		</g>
		<g>
			<path fill="#231F20" d="M791.226,432.115c-2.475,0-4.5-2.551-4.5-5.669v-14.526c0-3.118,2.025-5.669,4.5-5.669
				s4.5,2.551,4.5,5.669v14.526C795.726,429.563,793.701,432.115,791.226,432.115z"/>
		</g>
		<g>
			<path fill="#231F20" d="M778.396,402.846c-3.118,0-5.669-2.551-5.669-5.669V382.65c0-3.118,2.551-5.669,5.669-5.669h11.661
				c3.118,0,5.669,2.551,5.669,5.669v14.526c0,3.118-2.551,5.669-5.669,5.669H778.396z"/>
		</g>
		<circle fill="#231F20" cx="784.226" cy="368.228" r="7"/>
	</g>
	<g>
		<g>
			<path fill="#231F20" d="M910.243,539.81c-2.475,0-4.5-2.551-4.5-5.669v-14.526c0-3.118,2.025-5.669,4.5-5.669
				s4.5,2.551,4.5,5.669v14.526C914.743,537.259,912.718,539.81,910.243,539.81z"/>
		</g>
		<g>
			<path fill="#231F20" d="M924.243,539.81c-2.475,0-4.5-2.551-4.5-5.669v-14.526c0-3.118,2.025-5.669,4.5-5.669
				s4.5,2.551,4.5,5.669v14.526C928.743,537.259,926.718,539.81,924.243,539.81z"/>
		</g>
		<g>
			<path fill="#231F20" d="M911.413,510.541c-3.118,0-5.669-2.551-5.669-5.669v-14.526c0-3.118,2.551-5.669,5.669-5.669h11.661
				c3.118,0,5.669,2.551,5.669,5.669v14.526c0,3.118-2.551,5.669-5.669,5.669H911.413z"/>
		</g>
		<circle fill="#231F20" cx="917.243" cy="475.922" r="7"/>
	</g>
	<g>
		<g>
			<path fill="#231F20" d="M910.243,432.115c-2.475,0-4.5-2.551-4.5-5.669v-14.526c0-3.118,2.025-5.669,4.5-5.669
				s4.5,2.551,4.5,5.669v14.526C914.743,429.563,912.718,432.115,910.243,432.115z"/>
		</g>
		<g>
			<path fill="#231F20" d="M924.243,432.115c-2.475,0-4.5-2.551-4.5-5.669v-14.526c0-3.118,2.025-5.669,4.5-5.669
				s4.5,2.551,4.5,5.669v14.526C928.743,429.563,926.718,432.115,924.243,432.115z"/>
		</g>
		<g>
			<path fill="#231F20" d="M911.413,402.846c-3.118,0-5.669-2.551-5.669-5.669V382.65c0-3.118,2.551-5.669,5.669-5.669h11.661
				c3.118,0,5.669,2.551,5.669,5.669v14.526c0,3.118-2.551,5.669-5.669,5.669H911.413z"/>
		</g>
		<circle fill="#231F20" cx="917.243" cy="368.228" r="7"/>
	</g>
	<g>
		<g>
			<path fill="#231F20" d="M1041.752,539.81c-2.475,0-4.5-2.551-4.5-5.669v-14.526c0-3.118,2.025-5.669,4.5-5.669
				s4.5,2.551,4.5,5.669v14.526C1046.252,537.259,1044.228,539.81,1041.752,539.81z"/>
		</g>
		<g>
			<path fill="#231F20" d="M1055.752,539.81c-2.475,0-4.5-2.551-4.5-5.669v-14.526c0-3.118,2.025-5.669,4.5-5.669
				s4.5,2.551,4.5,5.669v14.526C1060.252,537.259,1058.228,539.81,1055.752,539.81z"/>
		</g>
		<g>
			<path fill="#231F20" d="M1042.922,510.541c-3.118,0-5.669-2.551-5.669-5.669v-14.526c0-3.118,2.551-5.669,5.669-5.669h11.661
				c3.118,0,5.669,2.551,5.669,5.669v14.526c0,3.118-2.551,5.669-5.669,5.669H1042.922z"/>
		</g>
		<circle fill="#231F20" cx="1048.752" cy="475.922" r="7"/>
	</g>
	<g>
		<g>
			<path fill="#231F20" d="M1174.264,539.81c-2.475,0-4.5-2.551-4.5-5.669v-14.526c0-3.118,2.025-5.669,4.5-5.669
				s4.5,2.551,4.5,5.669v14.526C1178.764,537.259,1176.739,539.81,1174.264,539.81z"/>
		</g>
		<g>
			<path fill="#231F20" d="M1188.264,539.81c-2.475,0-4.5-2.551-4.5-5.669v-14.526c0-3.118,2.025-5.669,4.5-5.669
				s4.5,2.551,4.5,5.669v14.526C1192.764,537.259,1190.739,539.81,1188.264,539.81z"/>
		</g>
		<g>
			<path fill="#231F20" d="M1175.433,510.541c-3.118,0-5.669-2.551-5.669-5.669v-14.526c0-3.118,2.551-5.669,5.669-5.669h11.661
				c3.118,0,5.669,2.551,5.669,5.669v14.526c0,3.118-2.551,5.669-5.669,5.669H1175.433z"/>
		</g>
		<circle fill="#231F20" cx="1181.264" cy="475.922" r="7"/>
	</g>
	<g>
		<g>
			<path fill="#231F20" d="M1041.752,432.115c-2.475,0-4.5-2.551-4.5-5.669v-14.526c0-3.118,2.025-5.669,4.5-5.669
				s4.5,2.551,4.5,5.669v14.526C1046.252,429.563,1044.228,432.115,1041.752,432.115z"/>
		</g>
		<g>
			<path fill="#231F20" d="M1055.752,432.115c-2.475,0-4.5-2.551-4.5-5.669v-14.526c0-3.118,2.025-5.669,4.5-5.669
				s4.5,2.551,4.5,5.669v14.526C1060.252,429.563,1058.228,432.115,1055.752,432.115z"/>
		</g>
		<g>
			<path fill="#231F20" d="M1042.922,402.846c-3.118,0-5.669-2.551-5.669-5.669V382.65c0-3.118,2.551-5.669,5.669-5.669h11.661
				c3.118,0,5.669,2.551,5.669,5.669v14.526c0,3.118-2.551,5.669-5.669,5.669H1042.922z"/>
		</g>
		<circle fill="#231F20" cx="1048.752" cy="368.228" r="7"/>
	</g>
	<g>
		<g>
			<path fill="#231F20" d="M1174.264,432.115c-2.475,0-4.5-2.551-4.5-5.669v-14.526c0-3.118,2.025-5.669,4.5-5.669
				s4.5,2.551,4.5,5.669v14.526C1178.764,429.563,1176.739,432.115,1174.264,432.115z"/>
		</g>
		<g>
			<path fill="#231F20" d="M1188.264,432.115c-2.475,0-4.5-2.551-4.5-5.669v-14.526c0-3.118,2.025-5.669,4.5-5.669
				s4.5,2.551,4.5,5.669v14.526C1192.764,429.563,1190.739,432.115,1188.264,432.115z"/>
		</g>
		<g>
			<path fill="#231F20" d="M1175.433,402.846c-3.118,0-5.669-2.551-5.669-5.669V382.65c0-3.118,2.551-5.669,5.669-5.669h11.661
				c3.118,0,5.669,2.551,5.669,5.669v14.526c0,3.118-2.551,5.669-5.669,5.669H1175.433z"/>
		</g>
		<circle fill="#231F20" cx="1181.264" cy="368.228" r="7"/>
	</g>
</g>
<g id="sittingPeopleJ">
	<g>
		<g>
			<path fill="#231F20" d="M380.694,229.433c-2.475,0-4.5-2.551-4.5-5.669v-14.526c0-3.118,2.025-5.669,4.5-5.669
				s4.5,2.551,4.5,5.669v14.526C385.194,226.881,383.169,229.433,380.694,229.433z"/>
		</g>
		<g>
			<path fill="#231F20" d="M394.694,229.433c-2.475,0-4.5-2.551-4.5-5.669v-14.526c0-3.118,2.025-5.669,4.5-5.669
				s4.5,2.551,4.5,5.669v14.526C399.194,226.881,397.169,229.433,394.694,229.433z"/>
		</g>
		<g>
			<path fill="#231F20" d="M381.864,200.163c-3.118,0-5.669-2.551-5.669-5.669v-14.526c0-3.118,2.551-5.669,5.669-5.669h11.661
				c3.118,0,5.669,2.551,5.669,5.669v14.526c0,3.118-2.551,5.669-5.669,5.669H381.864z"/>
		</g>
		<circle fill="#231F20" cx="387.694" cy="165.545" r="7"/>
	</g>
	<g>
		<g>
			<path fill="#231F20" d="M513.206,229.433c-2.475,0-4.5-2.551-4.5-5.669v-14.526c0-3.118,2.025-5.669,4.5-5.669
				s4.5,2.551,4.5,5.669v14.526C517.706,226.881,515.681,229.433,513.206,229.433z"/>
		</g>
		<g>
			<path fill="#231F20" d="M527.206,229.433c-2.475,0-4.5-2.551-4.5-5.669v-14.526c0-3.118,2.025-5.669,4.5-5.669
				s4.5,2.551,4.5,5.669v14.526C531.706,226.881,529.681,229.433,527.206,229.433z"/>
		</g>
		<g>
			<path fill="#231F20" d="M514.375,200.163c-3.118,0-5.669-2.551-5.669-5.669v-14.526c0-3.118,2.551-5.669,5.669-5.669h11.661
				c3.118,0,5.669,2.551,5.669,5.669v14.526c0,3.118-2.551,5.669-5.669,5.669H514.375z"/>
		</g>
		<circle fill="#231F20" cx="520.206" cy="165.545" r="7"/>
	</g>
	<g>
		<g>
			<path fill="#231F20" d="M380.694,121.737c-2.475,0-4.5-2.551-4.5-5.669v-14.526c0-3.118,2.025-5.669,4.5-5.669
				s4.5,2.551,4.5,5.669v14.526C385.194,119.186,383.169,121.737,380.694,121.737z"/>
		</g>
		<g>
			<path fill="#231F20" d="M394.694,121.737c-2.475,0-4.5-2.551-4.5-5.669v-14.526c0-3.118,2.025-5.669,4.5-5.669
				s4.5,2.551,4.5,5.669v14.526C399.194,119.186,397.169,121.737,394.694,121.737z"/>
		</g>
		<g>
			<path fill="#231F20" d="M381.864,92.468c-3.118,0-5.669-2.551-5.669-5.669V72.273c0-3.118,2.551-5.669,5.669-5.669h11.661
				c3.118,0,5.669,2.551,5.669,5.669v14.526c0,3.118-2.551,5.669-5.669,5.669H381.864z"/>
		</g>
		<circle fill="#231F20" cx="387.694" cy="57.85" r="7"/>
	</g>
	<g>
		<g>
			<path fill="#231F20" d="M513.206,121.737c-2.475,0-4.5-2.551-4.5-5.669v-14.526c0-3.118,2.025-5.669,4.5-5.669
				s4.5,2.551,4.5,5.669v14.526C517.706,119.186,515.681,121.737,513.206,121.737z"/>
		</g>
		<g>
			<path fill="#231F20" d="M527.206,121.737c-2.475,0-4.5-2.551-4.5-5.669v-14.526c0-3.118,2.025-5.669,4.5-5.669
				s4.5,2.551,4.5,5.669v14.526C531.706,119.186,529.681,121.737,527.206,121.737z"/>
		</g>
		<g>
			<path fill="#231F20" d="M514.375,92.468c-3.118,0-5.669-2.551-5.669-5.669V72.273c0-3.118,2.551-5.669,5.669-5.669h11.661
				c3.118,0,5.669,2.551,5.669,5.669v14.526c0,3.118-2.551,5.669-5.669,5.669H514.375z"/>
		</g>
		<circle fill="#231F20" cx="520.206" cy="57.85" r="7"/>
	</g>
	<g>
		<g>
			<path fill="#231F20" d="M644.715,229.433c-2.475,0-4.5-2.551-4.5-5.669v-14.526c0-3.118,2.025-5.669,4.5-5.669
				s4.5,2.551,4.5,5.669v14.526C649.215,226.881,647.19,229.433,644.715,229.433z"/>
		</g>
		<g>
			<path fill="#231F20" d="M658.715,229.433c-2.475,0-4.5-2.551-4.5-5.669v-14.526c0-3.118,2.025-5.669,4.5-5.669
				s4.5,2.551,4.5,5.669v14.526C663.215,226.881,661.19,229.433,658.715,229.433z"/>
		</g>
		<g>
			<path fill="#231F20" d="M645.884,200.163c-3.118,0-5.669-2.551-5.669-5.669v-14.526c0-3.118,2.551-5.669,5.669-5.669h11.661
				c3.118,0,5.669,2.551,5.669,5.669v14.526c0,3.118-2.551,5.669-5.669,5.669H645.884z"/>
		</g>
		<circle fill="#231F20" cx="651.715" cy="165.545" r="7"/>
	</g>
	<g>
		<g>
			<path fill="#231F20" d="M777.226,229.433c-2.475,0-4.5-2.551-4.5-5.669v-14.526c0-3.118,2.025-5.669,4.5-5.669
				s4.5,2.551,4.5,5.669v14.526C781.726,226.881,779.701,229.433,777.226,229.433z"/>
		</g>
		<g>
			<path fill="#231F20" d="M791.226,229.433c-2.475,0-4.5-2.551-4.5-5.669v-14.526c0-3.118,2.025-5.669,4.5-5.669
				s4.5,2.551,4.5,5.669v14.526C795.726,226.881,793.701,229.433,791.226,229.433z"/>
		</g>
		<g>
			<path fill="#231F20" d="M778.396,200.163c-3.118,0-5.669-2.551-5.669-5.669v-14.526c0-3.118,2.551-5.669,5.669-5.669h11.661
				c3.118,0,5.669,2.551,5.669,5.669v14.526c0,3.118-2.551,5.669-5.669,5.669H778.396z"/>
		</g>
		<circle fill="#231F20" cx="784.226" cy="165.545" r="7"/>
	</g>
	<g>
		<g>
			<path fill="#231F20" d="M644.715,121.737c-2.475,0-4.5-2.551-4.5-5.669v-14.526c0-3.118,2.025-5.669,4.5-5.669
				s4.5,2.551,4.5,5.669v14.526C649.215,119.186,647.19,121.737,644.715,121.737z"/>
		</g>
		<g>
			<path fill="#231F20" d="M658.715,121.737c-2.475,0-4.5-2.551-4.5-5.669v-14.526c0-3.118,2.025-5.669,4.5-5.669
				s4.5,2.551,4.5,5.669v14.526C663.215,119.186,661.19,121.737,658.715,121.737z"/>
		</g>
		<g>
			<path fill="#231F20" d="M645.884,92.468c-3.118,0-5.669-2.551-5.669-5.669V72.273c0-3.118,2.551-5.669,5.669-5.669h11.661
				c3.118,0,5.669,2.551,5.669,5.669v14.526c0,3.118-2.551,5.669-5.669,5.669H645.884z"/>
		</g>
		<circle fill="#231F20" cx="651.715" cy="57.85" r="7"/>
	</g>
	<g>
		<g>
			<path fill="#231F20" d="M777.226,121.737c-2.475,0-4.5-2.551-4.5-5.669v-14.526c0-3.118,2.025-5.669,4.5-5.669
				s4.5,2.551,4.5,5.669v14.526C781.726,119.186,779.701,121.737,777.226,121.737z"/>
		</g>
		<g>
			<path fill="#231F20" d="M791.226,121.737c-2.475,0-4.5-2.551-4.5-5.669v-14.526c0-3.118,2.025-5.669,4.5-5.669
				s4.5,2.551,4.5,5.669v14.526C795.726,119.186,793.701,121.737,791.226,121.737z"/>
		</g>
		<g>
			<path fill="#231F20" d="M778.396,92.468c-3.118,0-5.669-2.551-5.669-5.669V72.273c0-3.118,2.551-5.669,5.669-5.669h11.661
				c3.118,0,5.669,2.551,5.669,5.669v14.526c0,3.118-2.551,5.669-5.669,5.669H778.396z"/>
		</g>
		<circle fill="#231F20" cx="784.226" cy="57.85" r="7"/>
	</g>
</g>
<g id="desks">
	<polygon fill="#B7B7B8" points="426.694,85.738 348.694,85.738 348.694,94.738 358.694,94.738 358.694,129.238 367.694,129.238 
		367.694,94.738 407.694,94.738 407.694,129.238 416.694,129.238 416.694,94.738 426.694,94.738 	"/>
	<polygon fill="#B7B7B8" points="559.203,85.738 481.203,85.738 481.203,94.738 491.203,94.738 491.203,129.238 500.203,129.238 
		500.203,94.738 540.203,94.738 540.203,129.238 549.203,129.238 549.203,94.738 559.203,94.738 	"/>
	<polygon fill="#B7B7B8" points="690.216,85.738 612.217,85.738 612.217,94.738 622.217,94.738 622.217,129.238 631.217,129.238 
		631.217,94.738 671.217,94.738 671.217,129.238 680.217,129.238 680.217,94.738 690.216,94.738 	"/>
	<polygon fill="#B7B7B8" points="823.226,85.738 745.227,85.738 745.227,94.738 755.227,94.738 755.227,129.238 764.227,129.238 
		764.227,94.738 804.227,94.738 804.227,129.238 813.227,129.238 813.227,94.738 823.226,94.738 	"/>
	<polygon fill="#B7B7B8" points="426.694,193.067 348.694,193.067 348.694,202.067 358.694,202.067 358.694,236.567 
		367.694,236.567 367.694,202.067 407.694,202.067 407.694,236.567 416.694,236.567 416.694,202.067 426.694,202.067 	"/>
	<polygon fill="#B7B7B8" points="559.203,193.067 481.203,193.067 481.203,202.067 491.203,202.067 491.203,236.567 
		500.203,236.567 500.203,202.067 540.203,202.067 540.203,236.567 549.203,236.567 549.203,202.067 559.203,202.067 	"/>
	<polygon fill="#B7B7B8" points="690.216,193.067 612.217,193.067 612.217,202.067 622.217,202.067 622.217,236.567 
		631.217,236.567 631.217,202.067 671.217,202.067 671.217,236.567 680.217,236.567 680.217,202.067 690.216,202.067 	"/>
	<polygon fill="#B7B7B8" points="823.226,193.067 745.227,193.067 745.227,202.067 755.227,202.067 755.227,236.567 
		764.227,236.567 764.227,202.067 804.227,202.067 804.227,236.567 813.227,236.567 813.227,202.067 823.226,202.067 	"/>
	<polygon fill="#B7B7B8" points="426.694,396.296 348.694,396.296 348.694,405.296 358.694,405.296 358.694,439.796 
		367.694,439.796 367.694,405.296 407.694,405.296 407.694,439.796 416.694,439.796 416.694,405.296 426.694,405.296 	"/>
	<polygon fill="#B7B7B8" points="559.203,396.296 481.203,396.296 481.203,405.296 491.203,405.296 491.203,439.796 
		500.203,439.796 500.203,405.296 540.203,405.296 540.203,439.796 549.203,439.796 549.203,405.296 559.203,405.296 	"/>
	<polygon fill="#B7B7B8" points="690.216,396.296 612.217,396.296 612.217,405.296 622.217,405.296 622.217,439.796 
		631.217,439.796 631.217,405.296 671.217,405.296 671.217,439.796 680.217,439.796 680.217,405.296 690.216,405.296 	"/>
	<polygon fill="#B7B7B8" points="823.226,396.296 745.227,396.296 745.227,405.296 755.227,405.296 755.227,439.796 
		764.227,439.796 764.227,405.296 804.227,405.296 804.227,439.796 813.227,439.796 813.227,405.296 823.226,405.296 	"/>
	<polygon fill="#B7B7B8" points="426.694,503.625 348.694,503.625 348.694,512.625 358.694,512.625 358.694,547.125 
		367.694,547.125 367.694,512.625 407.694,512.625 407.694,547.125 416.694,547.125 416.694,512.625 426.694,512.625 	"/>
	<polygon fill="#B7B7B8" points="559.203,503.625 481.203,503.625 481.203,512.625 491.203,512.625 491.203,547.125 
		500.203,547.125 500.203,512.625 540.203,512.625 540.203,547.125 549.203,547.125 549.203,512.625 559.203,512.625 	"/>
	<polygon fill="#B7B7B8" points="690.216,503.625 612.217,503.625 612.217,512.625 622.217,512.625 622.217,547.125 
		631.217,547.125 631.217,512.625 671.217,512.625 671.217,547.125 680.217,547.125 680.217,512.625 690.216,512.625 	"/>
	<polygon fill="#B7B7B8" points="823.226,503.625 745.227,503.625 745.227,512.625 755.227,512.625 755.227,547.125 
		764.227,547.125 764.227,512.625 804.227,512.625 804.227,547.125 813.227,547.125 813.227,512.625 823.226,512.625 	"/>
	<polygon fill="#B7B7B8" points="957.24,396.296 879.24,396.296 879.24,405.296 889.24,405.296 889.24,439.796 898.24,439.796 
		898.24,405.296 938.24,405.296 938.24,439.796 947.24,439.796 947.24,405.296 957.24,405.296 	"/>
	<polygon fill="#B7B7B8" points="1088.253,396.296 1010.254,396.296 1010.254,405.296 1020.254,405.296 1020.254,439.796 
		1029.254,439.796 1029.254,405.296 1069.254,405.296 1069.254,439.796 1078.254,439.796 1078.254,405.296 1088.253,405.296 	"/>
	<polygon fill="#B7B7B8" points="1221.263,396.296 1143.264,396.296 1143.264,405.296 1153.264,405.296 1153.264,439.796 
		1162.264,439.796 1162.264,405.296 1202.264,405.296 1202.264,439.796 1211.264,439.796 1211.264,405.296 1221.263,405.296 	"/>
	<polygon fill="#B7B7B8" points="957.24,503.625 879.24,503.625 879.24,512.625 889.24,512.625 889.24,547.125 898.24,547.125 
		898.24,512.625 938.24,512.625 938.24,547.125 947.24,547.125 947.24,512.625 957.24,512.625 	"/>
	<polygon fill="#B7B7B8" points="1088.253,503.625 1010.254,503.625 1010.254,512.625 1020.254,512.625 1020.254,547.125 
		1029.254,547.125 1029.254,512.625 1069.254,512.625 1069.254,547.125 1078.254,547.125 1078.254,512.625 1088.253,512.625 	"/>
	<polygon fill="#B7B7B8" points="1221.263,503.625 1143.264,503.625 1143.264,512.625 1153.264,512.625 1153.264,547.125 
		1162.264,547.125 1162.264,512.625 1202.264,512.625 1202.264,547.125 1211.264,547.125 1211.264,512.625 1221.263,512.625 	"/>
	<polygon fill="#B7B7B8" points="426.694,711.016 348.694,711.016 348.694,720.016 358.694,720.016 358.694,754.516 
		367.694,754.516 367.694,720.016 407.694,720.016 407.694,754.516 416.694,754.516 416.694,720.016 426.694,720.016 	"/>
	<polygon fill="#B7B7B8" points="559.203,711.016 481.203,711.016 481.203,720.016 491.203,720.016 491.203,754.516 
		500.203,754.516 500.203,720.016 540.203,720.016 540.203,754.516 549.203,754.516 549.203,720.016 559.203,720.016 	"/>
	<polygon fill="#B7B7B8" points="690.216,711.016 612.217,711.016 612.217,720.016 622.217,720.016 622.217,754.516 
		631.217,754.516 631.217,720.016 671.217,720.016 671.217,754.516 680.217,754.516 680.217,720.016 690.216,720.016 	"/>
	<polygon fill="#B7B7B8" points="823.226,711.016 745.227,711.016 745.227,720.016 755.227,720.016 755.227,754.516 
		764.227,754.516 764.227,720.016 804.227,720.016 804.227,754.516 813.227,754.516 813.227,720.016 823.226,720.016 	"/>
	<polygon fill="#B7B7B8" points="426.694,818.344 348.694,818.344 348.694,827.344 358.694,827.344 358.694,861.844 
		367.694,861.844 367.694,827.344 407.694,827.344 407.694,861.844 416.694,861.844 416.694,827.344 426.694,827.344 	"/>
	<polygon fill="#B7B7B8" points="559.203,818.344 481.203,818.344 481.203,827.344 491.203,827.344 491.203,861.844 
		500.203,861.844 500.203,827.344 540.203,827.344 540.203,861.844 549.203,861.844 549.203,827.344 559.203,827.344 	"/>
	<polygon fill="#B7B7B8" points="690.216,818.344 612.217,818.344 612.217,827.344 622.217,827.344 622.217,861.844 
		631.217,861.844 631.217,827.344 671.217,827.344 671.217,861.844 680.217,861.844 680.217,827.344 690.216,827.344 	"/>
	<polygon fill="#B7B7B8" points="823.226,818.344 745.227,818.344 745.227,827.344 755.227,827.344 755.227,861.844 
		764.227,861.844 764.227,827.344 804.227,827.344 804.227,861.844 813.227,861.844 813.227,827.344 823.226,827.344 	"/>
	<polygon fill="#B7B7B8" points="957.24,711.016 879.24,711.016 879.24,720.016 889.24,720.016 889.24,754.516 898.24,754.516 
		898.24,720.016 938.24,720.016 938.24,754.516 947.24,754.516 947.24,720.016 957.24,720.016 	"/>
	<polygon fill="#B7B7B8" points="1088.253,711.016 1010.254,711.016 1010.254,720.016 1020.254,720.016 1020.254,754.516 
		1029.254,754.516 1029.254,720.016 1069.254,720.016 1069.254,754.516 1078.254,754.516 1078.254,720.016 1088.253,720.016 	"/>
	<polygon fill="#B7B7B8" points="1221.263,711.016 1143.264,711.016 1143.264,720.016 1153.264,720.016 1153.264,754.516 
		1162.264,754.516 1162.264,720.016 1202.264,720.016 1202.264,754.516 1211.264,754.516 1211.264,720.016 1221.263,720.016 	"/>
	<polygon fill="#B7B7B8" points="957.24,818.344 879.24,818.344 879.24,827.344 889.24,827.344 889.24,861.844 898.24,861.844 
		898.24,827.344 938.24,827.344 938.24,861.844 947.24,861.844 947.24,827.344 957.24,827.344 	"/>
	<polygon fill="#B7B7B8" points="1088.253,818.344 1010.254,818.344 1010.254,827.344 1020.254,827.344 1020.254,861.844 
		1029.254,861.844 1029.254,827.344 1069.254,827.344 1069.254,861.844 1078.254,861.844 1078.254,827.344 1088.253,827.344 	"/>
	<polygon fill="#B7B7B8" points="1221.263,818.344 1143.264,818.344 1143.264,827.344 1153.264,827.344 1153.264,861.844 
		1162.264,861.844 1162.264,827.344 1202.264,827.344 1202.264,861.844 1211.264,861.844 1211.264,827.344 1221.263,827.344 	"/>
</g>
<g id="text">
	<g>
		<text transform="matrix(1 0 0 1 1042.1904 159.8481)" fill="#808080" font-family="'HelveticaNeue-Light'" font-size="36">14:09</text>
	</g>
	<g>
		<path fill="none" stroke="#B7B7B8" stroke-width="12.523" stroke-miterlimit="10" d="M1076.443,81.254"/>
		<g>
			<g>
				<path fill="none" stroke="#B7B7B8" stroke-width="6" stroke-miterlimit="10" d="M1060.104,86.685
					c-3.413,1.652-6.729,3.622-9.91,5.925c-29.779,21.569-36.436,63.199-14.867,92.979c5.856,8.084,13.221,14.404,21.396,18.977"/>
				<g>
					<polygon fill="#B7B7B8" points="1052.906,76.928 1076.443,81.254 1060.931,99.478 					"/>
				</g>
			</g>
		</g>
		<g>
			<g>
				<path fill="none" stroke="#B7B7B8" stroke-width="6" stroke-miterlimit="10" d="M1118.402,206.38
					c3.411-1.652,6.725-3.622,9.904-5.924c29.78-21.569,36.438-63.197,14.868-92.979c-5.856-8.086-13.219-14.401-21.394-18.974"/>
				<g>
					<polygon fill="#B7B7B8" points="1125.601,216.135 1102.063,211.813 1117.573,193.587 					"/>
				</g>
			</g>
		</g>
		<path fill="none" stroke="#B7B7B8" stroke-width="12.523" stroke-miterlimit="10" d="M1121.78,88.503"/>
	</g>
	<path fill="none" stroke="#929497" stroke-width="3" stroke-miterlimit="10" d="M1062.889,103.106"/>
	<path fill="none" stroke="#929497" stroke-width="3" stroke-miterlimit="10" d="M1070.666,95.328"/>
	<text transform="matrix(1 0 0 1 232.8677 299.8203)" fill="#808080" font-family="'HelveticaNeue-Thin'" font-size="72">J</text>
	<text transform="matrix(1 0 0 1 225.063 486.3848)" fill="#808080" font-family="'HelveticaNeue-Thin'" font-size="72">H</text>
	<text transform="matrix(1 0 0 1 223.5073 672.9487)" fill="#808080" font-family="'HelveticaNeue-Thin'" font-size="72">G</text>
</g>
</svg>
